<svg height="512pt" viewBox="-16 0 512 512.001" width="512pt" xmlns="http://www.w3.org/2000/svg"><path d="m349.660156 120.707031h-38.328125c-4.269531 0-7.734375-3.464843-7.734375-7.734375v-46.976562c0-4.269532 3.464844-7.730469 7.734375-7.730469h38.328125c4.273438 0 7.734375 3.460937 7.734375 7.730469v46.976562c0 4.273438-3.460937 7.734375-7.734375 7.734375zm-30.59375-15.46875h22.859375v-31.507812h-22.859375zm0 0" fill="#5c5c5c"/><path d="m430.640625 219.664062h-380.410156l-50.230469 201.589844h480.871094zm0 0" fill="#919191"/><path d="m430.640625 219.664062h-26.421875l25.792969 103.527344c7.960937 31.945313-16.203125 62.871094-49.125 62.871094h-372.117188l-8.769531 35.191406h480.871094zm0 0" fill="#7a7a7a"/><path d="m413.765625 378.285156h-158.050781c-4.625 0-8.175782-4.101562-7.507813-8.679687l15.566407-106.851563c.542968-3.730468 3.738281-6.496094 7.507812-6.496094h121.796875c3.636719 0 6.757813 2.578126 7.449219 6.148438l20.6875 106.851562c.90625 4.679688-2.679688 9.027344-7.449219 9.027344zm0 0" fill="#bdbdbd"/><path d="m188.484375 285.132812h-119.625c-5.550781 0-10.054687 4.503907-10.054687 10.054688v17.273438c0 5.550781 4.503906 10.054687 10.054687 10.054687h119.625c5.550781 0 10.050781-4.503906 10.050781-10.054687v-17.273438c0-5.550781-4.5-10.054688-10.050781-10.054688zm0 0" fill="#5c5c5c"/><path d="m50.230469 124.03125v95.632812h380.414062v-95.632812c0-10.378906-8.414062-18.792969-18.792969-18.792969h-342.828124c-10.378907 0-18.792969 8.414063-18.792969 18.792969zm0 0" fill="#bdbdbd"/><path d="m430.640625 219.664062v-95.632812c0-10.378906-8.410156-18.792969-18.789063-18.792969h-26.5c10.378907 0 18.792969 8.414063 18.792969 18.792969v95.632812zm0 0" fill="#a6a6a6"/><path d="m0 421.253906v69.351563c0 11.816406 9.582031 21.394531 21.398438 21.394531h438.078124c11.816407 0 21.398438-9.578125 21.398438-21.394531v-69.351563zm0 0" fill="#5c5c5c"/><path d="m436.691406 421.253906v69.351563c0 11.816406-9.582031 21.394531-21.398437 21.394531h44.183593c11.816407 0 21.394532-9.578125 21.394532-21.394531v-69.351563zm0 0" fill="#4a4a4a"/><path d="m232.53125 8.722656v56.285156c0 4.820313 3.902344 8.722657 8.722656 8.722657h177.796875c4.820313 0 8.726563-3.902344 8.726563-8.722657v-56.285156c0-4.816406-3.90625-8.722656-8.726563-8.722656h-177.796875c-4.820312 0-8.722656 3.90625-8.722656 8.722656zm0 0" fill="#58caee"/><path d="m397.253906 0v73.730469h21.796875c4.820313 0 8.726563-3.902344 8.726563-8.722657v-56.285156c0-4.816406-3.90625-8.722656-8.726563-8.722656zm0 0" fill="#4cafcf"/><path d="m218.78125 142.238281v40.425781c0 5.917969 4.792969 10.714844 10.710938 10.714844h155.949218c5.914063 0 10.710938-4.796875 10.710938-10.714844v-40.425781c0-5.917969-4.796875-10.710937-10.710938-10.710937h-155.949218c-5.914063 0-10.710938 4.792968-10.710938 10.710937zm0 0" fill="#58caee"/><path d="m364.527344 131.527344v61.851562h20.914062c5.914063 0 10.710938-4.796875 10.710938-10.714844v-40.425781c0-5.917969-4.796875-10.710937-10.710938-10.710937zm0 0" fill="#4cafcf"/><path d="m258.675781 480.035156h-35.789062c-8.769531 0-15.902344-7.132812-15.902344-15.902344v-7.816406c0-4.269531 3.464844-7.734375 7.734375-7.734375 4.273438 0 7.734375 3.464844 7.734375 7.734375v7.816406c0 .238282.195313.433594.433594.433594h35.789062c.238281 0 .433594-.195312.433594-.433594v-7.816406c0-4.269531 3.460937-7.734375 7.730469-7.734375 4.273437 0 7.734375 3.464844 7.734375 7.734375v7.816406c0 8.769532-7.132813 15.902344-15.898438 15.902344zm0 0" fill="#bdbdbd"/><g fill="#5c5c5c"><path d="m302.726562 298.195312h-5.5c-4.273437 0-7.734374-3.464843-7.734374-7.734374 0-4.269532 3.460937-7.734376 7.734374-7.734376h5.5c4.273438 0 7.734376 3.464844 7.734376 7.734376 0 4.269531-3.460938 7.734374-7.734376 7.734374zm0 0"/><path d="m338.046875 298.195312h-5.5c-4.273437 0-7.734375-3.464843-7.734375-7.734374 0-4.269532 3.460938-7.734376 7.734375-7.734376h5.5c4.273437 0 7.734375 3.464844 7.734375 7.734376 0 4.269531-3.460938 7.734374-7.734375 7.734374zm0 0"/><path d="m373.367188 298.195312h-5.503907c-4.269531 0-7.734375-3.464843-7.734375-7.734374 0-4.269532 3.464844-7.734376 7.734375-7.734376h5.503907c4.269531 0 7.730468 3.464844 7.730468 7.734376 0 4.269531-3.460937 7.734374-7.730468 7.734374zm0 0"/><path d="m302.726562 325.007812h-5.5c-4.273437 0-7.734374-3.464843-7.734374-7.734374 0-4.269532 3.460937-7.734376 7.734374-7.734376h5.5c4.273438 0 7.734376 3.464844 7.734376 7.734376 0 4.269531-3.460938 7.734374-7.734376 7.734374zm0 0"/><path d="m338.046875 325.007812h-5.5c-4.273437 0-7.734375-3.464843-7.734375-7.734374 0-4.269532 3.460938-7.734376 7.734375-7.734376h5.5c4.273437 0 7.734375 3.464844 7.734375 7.734376 0 4.269531-3.460938 7.734374-7.734375 7.734374zm0 0"/><path d="m373.367188 325.007812h-5.503907c-4.269531 0-7.734375-3.464843-7.734375-7.734374 0-4.269532 3.464844-7.734376 7.734375-7.734376h5.503907c4.269531 0 7.730468 3.464844 7.730468 7.734376 0 4.269531-3.460937 7.734374-7.730468 7.734374zm0 0"/><path d="m302.726562 351.820312h-5.5c-4.273437 0-7.734374-3.464843-7.734374-7.734374 0-4.273438 3.460937-7.734376 7.734374-7.734376h5.5c4.273438 0 7.734376 3.460938 7.734376 7.734376 0 4.269531-3.460938 7.734374-7.734376 7.734374zm0 0"/><path d="m338.046875 351.820312h-5.5c-4.273437 0-7.734375-3.464843-7.734375-7.734374 0-4.273438 3.460938-7.734376 7.734375-7.734376h5.5c4.273437 0 7.734375 3.460938 7.734375 7.734376 0 4.269531-3.460938 7.734374-7.734375 7.734374zm0 0"/><path d="m373.367188 351.820312h-5.503907c-4.269531 0-7.734375-3.464843-7.734375-7.734374 0-4.273438 3.464844-7.734376 7.734375-7.734376h5.503907c4.269531 0 7.730468 3.460938 7.730468 7.734376 0 4.269531-3.460937 7.734374-7.730468 7.734374zm0 0"/><path d="m100.878906 155.457031h-8.25c-4.273437 0-7.734375-3.464843-7.734375-7.734375 0-4.269531 3.460938-7.734375 7.734375-7.734375h8.25c4.269532 0 7.734375 3.464844 7.734375 7.734375 0 4.269532-3.464843 7.734375-7.734375 7.734375zm0 0"/><path d="m183.804688 155.457031h-57.921876c-4.269531 0-7.730468-3.464843-7.730468-7.734375 0-4.269531 3.460937-7.734375 7.730468-7.734375h57.921876c4.273437 0 7.734374 3.464844 7.734374 7.734375 0 4.269532-3.460937 7.734375-7.734374 7.734375zm0 0"/><path d="m391.339844 52.59375h-121.683594c-4.273438 0-7.734375-3.464844-7.734375-7.734375 0-4.273437 3.460937-7.734375 7.734375-7.734375h121.683594c4.269531 0 7.734375 3.460938 7.734375 7.734375 0 4.269531-3.464844 7.734375-7.734375 7.734375zm0 0"/></g><path d="m177.136719 173.761719v127.527343h-96.933594v-127.527343l12.917969 9.894531c1.910156 1.464844 4.5625 1.464844 6.472656 0l9.679688-7.414062c1.90625-1.464844 4.5625-1.464844 6.46875-.003907l9.683593 7.417969c1.910157 1.460938 4.5625 1.460938 6.472657 0l9.6875-7.417969c1.90625-1.460937 4.5625-1.460937 6.46875 0l9.6875 7.417969c1.910156 1.464844 4.5625 1.464844 6.472656 0zm0 0" fill="#eeedee"/><path d="m164.214844 183.65625c-1.910156 1.464844-4.5625 1.464844-6.46875 0l-8.746094-6.695312v124.328124h28.136719v-127.527343zm0 0" fill="#d6d5d6"/><path d="m81.136719 176.242188c.414062-.316407.863281-.566407 1.332031-.746094l-2.265625-1.734375v3.191406zm0 0" fill="#d6d5d6"/></svg>